<svg width="14" height="14" viewBox="0 0 14 14" fill="none" xmlns="http://www.w3.org/2000/svg">
<path d="M9.625 3.5C9.625 2.5335 8.8415 1.75 7.875 1.75H3.5C2.5335 1.75 1.75 2.5335 1.75 3.5V7.875C1.75 8.8415 2.5335 9.625 3.5 9.625V6.125C3.5 4.67525 4.67525 3.5 6.125 3.5H9.625Z" fill="url(#paint0_linear_1564_7676)"/>
<path d="M10.5 4.375C11.4665 4.375 12.25 5.1585 12.25 6.125V10.5C12.25 11.4665 11.4665 12.25 10.5 12.25H6.125C5.1585 12.25 4.375 11.4665 4.375 10.5V6.125C4.375 5.1585 5.1585 4.375 6.125 4.375H10.5Z" fill="url(#paint1_linear_1564_7676)"/>
<defs>
<linearGradient id="paint0_linear_1564_7676" x1="2.32198" y1="1.75" x2="7.60647" y2="13.9757" gradientUnits="userSpaceOnUse">
<stop stop-color="#FADD62"/>
<stop offset="1" stop-color="#FF7337"/>
</linearGradient>
<linearGradient id="paint1_linear_1564_7676" x1="2.32198" y1="1.75" x2="7.60647" y2="13.9757" gradientUnits="userSpaceOnUse">
<stop stop-color="#FADD62"/>
<stop offset="1" stop-color="#FF7337"/>
</linearGradient>
</defs>
</svg>
