<svg width="70" height="70" viewBox="0 0 70 70" fill="none" xmlns="http://www.w3.org/2000/svg">
<rect width="70" height="70" rx="35" fill="#222222"/>
<path d="M22.4268 32.5073L38.2581 45.8744C39.1539 46.8215 39.8044 47.9655 40.1538 49.206C40.2616 49.5885 40.3136 49.9859 40.3173 50.3871L40.3582 55L23.1851 47.5718C21.5087 46.8512 20.4493 45.191 20.5162 43.3859L20.427 35.9763C20.453 35.018 20.8433 34.1044 21.5236 33.421L22.4268 32.5073Z" fill="white"/>
<path d="M46.1718 16.9377C46.1718 16.9377 42.7298 13.8587 37.8157 15.4632C32.898 17.0714 29.9317 17.8217 29.9317 17.8217C29.9317 17.8217 27.4375 18.1522 25.3671 21.1718L15 24.2731C15 24.2731 17.9477 30.7208 22.4082 30.3457L22.4231 30.342L36.8976 37.7071C38.3027 38.4202 39.9865 38.2939 41.2689 37.3765L53.4388 28.652C54.409 27.9872 54.9888 26.8915 54.9926 25.7216L55 16.9637L46.1718 16.9377ZM37.7302 21.5544L40.7485 18.4085L44.737 19.6899L37.7302 21.5544Z" fill="white"/>
</svg>
