<svg width="23" height="16" viewBox="0 0 23 16" fill="none" xmlns="http://www.w3.org/2000/svg">
<rect x="0.5" y="0.5" width="22" height="15" rx="2" fill="white" stroke="#D9D9D9"/>
<path fill-rule="evenodd" clip-rule="evenodd" d="M6.6 10.1606H5.56293C5.49196 10.1606 5.4316 10.2122 5.42053 10.2823L5.00109 12.9416C4.99275 12.9941 5.03339 13.0414 5.08662 13.0414H5.58173C5.6527 13.0414 5.71305 12.9898 5.72412 12.9197L5.83725 12.2024C5.84816 12.1322 5.90867 12.0806 5.97949 12.0806H6.30779C6.99095 12.0806 7.3852 11.7501 7.48822 11.095C7.5346 10.8084 7.49018 10.5832 7.35594 10.4254C7.20857 10.2523 6.94709 10.1606 6.6 10.1606ZM6.71965 11.1319C6.66295 11.5041 6.37861 11.5041 6.10369 11.5041H5.94719L6.05698 10.8091C6.0635 10.7671 6.09989 10.7362 6.14235 10.7362H6.21408C6.40136 10.7362 6.57804 10.7362 6.66934 10.8429C6.72372 10.9066 6.74043 11.0012 6.71965 11.1319ZM9.70008 11.12H9.20345C9.16113 11.12 9.12457 11.151 9.11805 11.193L9.09608 11.3319L9.06134 11.2816C8.95383 11.1255 8.71411 11.0733 8.47482 11.0733C7.92597 11.0733 7.45727 11.489 7.36597 12.0721C7.31853 12.3629 7.38597 12.641 7.55095 12.835C7.70232 13.0133 7.91888 13.0876 8.1765 13.0876C8.61868 13.0876 8.86394 12.8032 8.86394 12.8032L8.84176 12.9413C8.83341 12.9941 8.87404 13.0414 8.92696 13.0414H9.37433C9.44548 13.0414 9.50549 12.9898 9.51671 12.9196L9.78513 11.2198C9.79363 11.1675 9.75313 11.12 9.70008 11.12ZM9.0078 12.0866C8.95987 12.3703 8.73468 12.5608 8.44752 12.5608C8.30331 12.5608 8.18801 12.5145 8.11404 12.4269C8.04064 12.3399 8.01271 12.2159 8.03608 12.078C8.08085 11.7966 8.30983 11.6 8.59264 11.6C8.73362 11.6 8.84829 11.6468 8.9238 11.7352C8.99945 11.8246 9.02948 11.9492 9.0078 12.0866ZM11.846 11.1199H12.3451C12.415 11.1199 12.4557 11.1983 12.416 11.2557L10.7562 13.6516C10.7293 13.6904 10.685 13.7135 10.6377 13.7135H10.1392C10.0691 13.7135 10.0281 13.6345 10.0687 13.577L10.5856 12.8475L10.0359 11.2343C10.0169 11.1782 10.0583 11.1199 10.1179 11.1199H10.6083C10.672 11.1199 10.7282 11.1618 10.7466 11.2228L11.0383 12.1971L11.7267 11.1832C11.7536 11.1436 11.7984 11.1199 11.846 11.1199Z" fill="#253B80"/>
<path fill-rule="evenodd" clip-rule="evenodd" d="M17.2571 12.9416L17.6827 10.2336C17.6892 10.1916 17.7257 10.1606 17.768 10.1605H18.2471C18.3 10.1605 18.3407 10.2079 18.3323 10.2604L17.9126 12.9197C17.9017 12.9898 17.8413 13.0414 17.7702 13.0414H17.3423C17.2894 13.0414 17.2487 12.9941 17.2571 12.9416ZM13.9975 10.1606H12.9602C12.8894 10.1606 12.8291 10.2122 12.818 10.2822L12.3986 12.9416C12.3902 12.9941 12.4308 13.0414 12.4838 13.0414H13.016C13.0655 13.0414 13.1078 13.0053 13.1155 12.9562L13.2346 12.2024C13.2455 12.1321 13.306 12.0806 13.3768 12.0806H13.7049C14.3882 12.0806 14.7824 11.75 14.8855 11.095C14.932 10.8084 14.8873 10.5832 14.7532 10.4254C14.6059 10.2523 14.3446 10.1606 13.9975 10.1606ZM14.1172 11.1319C14.0606 11.5041 13.7762 11.5041 13.5012 11.5041H13.3448L13.4548 10.8091C13.4613 10.7671 13.4974 10.7361 13.54 10.7361H13.6117C13.7988 10.7361 13.9757 10.7361 14.0669 10.8429C14.1214 10.9066 14.1379 11.0012 14.1172 11.1319ZM17.0973 11.12H16.601C16.5584 11.12 16.5221 11.151 16.5158 11.193L16.4938 11.3319L16.4589 11.2815C16.3514 11.1255 16.1118 11.0733 15.8725 11.0733C15.3237 11.0733 14.8551 11.489 14.7638 12.0721C14.7165 12.3629 14.7837 12.641 14.9487 12.835C15.1003 13.0133 15.3166 13.0876 15.5742 13.0876C16.0164 13.0876 16.2616 12.8032 16.2616 12.8032L16.2395 12.9413C16.2311 12.994 16.2718 13.0413 16.325 13.0413H16.7722C16.843 13.0413 16.9033 12.9898 16.9144 12.9196L17.183 11.2198C17.1912 11.1675 17.1506 11.12 17.0973 11.12ZM16.4051 12.0866C16.3574 12.3703 16.132 12.5608 15.8447 12.5608C15.7008 12.5608 15.5853 12.5145 15.5113 12.4269C15.4379 12.3399 15.4103 12.2159 15.4334 12.078C15.4783 11.7966 15.7071 11.6 15.9899 11.6C16.1309 11.6 16.2455 11.6468 16.3211 11.7352C16.397 11.8246 16.4271 11.9492 16.4051 12.0866Z" fill="#179BD7"/>
<path d="M10.4379 9.20927L10.5654 8.39944L10.2814 8.39284H8.92529L9.86775 2.41696C9.87063 2.39891 9.88017 2.38209 9.89407 2.37015C9.90796 2.35821 9.92579 2.35162 9.94431 2.35162H12.231C12.9901 2.35162 13.514 2.5096 13.7875 2.82139C13.9158 2.96767 13.9974 3.12052 14.037 3.28873C14.0784 3.46523 14.0791 3.6761 14.0386 3.9333L14.0357 3.95207V4.11686L14.164 4.18952C14.272 4.2468 14.3577 4.31238 14.4236 4.38747C14.5333 4.51253 14.6043 4.67147 14.6342 4.85992C14.6652 5.05373 14.6549 5.28435 14.6043 5.54544C14.5457 5.84579 14.4511 6.10737 14.3234 6.32141C14.2059 6.51863 14.0562 6.68217 13.8785 6.80898C13.7088 6.9294 13.5072 7.02084 13.2793 7.07937C13.0584 7.13684 12.8066 7.16589 12.5304 7.16589H12.3524C12.2252 7.16589 12.1015 7.21172 12.0045 7.29389C11.9073 7.37775 11.8428 7.49228 11.8231 7.61761L11.8097 7.69053L11.5845 9.11783L11.5742 9.17025C11.5715 9.18688 11.5669 9.19516 11.5601 9.20078C11.554 9.20583 11.5452 9.20927 11.5367 9.20927H10.4379Z" fill="#253B80"/>
<path d="M14.2854 3.97116C14.2786 4.0148 14.2708 4.05941 14.2621 4.10524C13.9604 5.65352 12.9288 6.18838 11.6111 6.18838H10.9402C10.7791 6.18838 10.6433 6.30539 10.6182 6.46434L10.2747 8.64282L10.1774 9.26029C10.1611 9.36465 10.2416 9.45875 10.3468 9.45875H11.5368C11.6777 9.45875 11.7973 9.35637 11.8195 9.21742L11.8312 9.15693L12.0553 7.73517L12.0697 7.6572C12.0916 7.51777 12.2115 7.41538 12.3524 7.41538H12.5304C13.6832 7.41538 14.5858 6.94731 14.8496 5.59281C14.9597 5.02699 14.9027 4.55454 14.6111 4.22226C14.5229 4.12206 14.4134 4.03893 14.2854 3.97116Z" fill="#179BD7"/>
<path d="M13.97 3.84548C13.9239 3.83207 13.8763 3.81988 13.8276 3.80891C13.7786 3.79819 13.7283 3.78868 13.6767 3.78039C13.4958 3.75114 13.2976 3.73724 13.0853 3.73724H11.293C11.2488 3.73724 11.2069 3.74724 11.1694 3.76528C11.0867 3.80501 11.0253 3.88327 11.0104 3.97908L10.6291 6.39401L10.6182 6.46446C10.6433 6.30551 10.7791 6.18849 10.9402 6.18849H11.6111C12.9288 6.18849 13.9605 5.65339 14.262 4.10536C14.271 4.05953 14.2786 4.01491 14.2854 3.97128C14.2091 3.93081 14.1265 3.89619 14.0375 3.86669C14.0156 3.85938 13.9929 3.85231 13.97 3.84548Z" fill="#222D65"/>
<path d="M11.0102 3.97901C11.0251 3.8832 11.0866 3.80494 11.1692 3.76545C11.207 3.74741 11.2487 3.73741 11.2927 3.73741H13.0851C13.2974 3.73741 13.4956 3.75131 13.6765 3.78056C13.7282 3.78885 13.7784 3.79836 13.8274 3.80908C13.8762 3.82006 13.9237 3.83225 13.9698 3.84565C13.9927 3.85248 14.0153 3.85955 14.0375 3.86662C14.1265 3.89612 14.2092 3.93098 14.2855 3.9712C14.3752 3.39904 14.2847 3.00948 13.9754 2.65672C13.6344 2.26837 13.0188 2.10211 12.2311 2.10211H9.94439C9.78348 2.10211 9.64628 2.21912 9.62137 2.37832L8.66895 8.41564C8.65014 8.53507 8.74228 8.64286 8.8627 8.64286H10.2745L10.629 6.39393L11.0102 3.97901Z" fill="#253B80"/>
</svg>
