<svg width="23" height="16" viewBox="0 0 23 16" fill="none" xmlns="http://www.w3.org/2000/svg">
<rect x="0.5" y="0.5" width="22" height="15" rx="2" fill="white" stroke="#D9D9D9"/>
<path d="M16.2493 3L12.0371 6.12476L12.8204 4.28324L16.2493 3Z" fill="#E17726" stroke="#E17726" stroke-width="0.0416635" stroke-linecap="round" stroke-linejoin="round"/>
<path d="M6.5332 3L10.7079 6.15393L9.96211 4.28324L6.5332 3Z" fill="#E27625" stroke="#E27625" stroke-width="0.0416635" stroke-linecap="round" stroke-linejoin="round"/>
<path d="M14.7326 10.2453L13.6118 11.9618L16.0116 12.6243L16.6991 10.2828L14.7326 10.2453Z" fill="#E27625" stroke="#E27625" stroke-width="0.0416635" stroke-linecap="round" stroke-linejoin="round"/>
<path d="M6.0874 10.2828L6.77068 12.6243L9.16634 11.9618L8.04975 10.2453L6.0874 10.2828Z" fill="#E27625" stroke="#E27625" stroke-width="0.0416635" stroke-linecap="round" stroke-linejoin="round"/>
<path d="M9.03722 7.3455L8.37061 8.35376L10.7454 8.46209L10.6663 5.89978L9.03722 7.3455Z" fill="#E27625" stroke="#E27625" stroke-width="0.0416635" stroke-linecap="round" stroke-linejoin="round"/>
<path d="M13.7453 7.34553L12.0913 5.87064L12.0371 8.46211L14.4119 8.35378L13.7453 7.34553Z" fill="#E27625" stroke="#E27625" stroke-width="0.0416635" stroke-linecap="round" stroke-linejoin="round"/>
<path d="M9.1665 11.9618L10.6039 11.266L9.36649 10.2994L9.1665 11.9618Z" fill="#E27625" stroke="#E27625" stroke-width="0.0416635" stroke-linecap="round" stroke-linejoin="round"/>
<path d="M12.1787 11.266L13.6119 11.9618L13.4161 10.2994L12.1787 11.266Z" fill="#E27625" stroke="#E27625" stroke-width="0.0416635" stroke-linecap="round" stroke-linejoin="round"/>
<path d="M13.6119 11.9618L12.1787 11.2661L12.2954 12.1993L12.2829 12.5951L13.6119 11.9618Z" fill="#D5BFB2" stroke="#D5BFB2" stroke-width="0.0416635" stroke-linecap="round" stroke-linejoin="round"/>
<path d="M9.1665 11.9618L10.4997 12.5951L10.4914 12.1993L10.6039 11.2661L9.1665 11.9618Z" fill="#D5BFB2" stroke="#D5BFB2" stroke-width="0.0416635" stroke-linecap="round" stroke-linejoin="round"/>
<path d="M10.5246 9.68285L9.33301 9.33287L10.1746 8.9454L10.5246 9.68285Z" fill="#233447" stroke="#233447" stroke-width="0.0416635" stroke-linecap="round" stroke-linejoin="round"/>
<path d="M12.2578 9.68285L12.6078 8.9454L13.4536 9.33287L12.2578 9.68285Z" fill="#233447" stroke="#233447" stroke-width="0.0416635" stroke-linecap="round" stroke-linejoin="round"/>
<path d="M9.16639 11.9618L9.37471 10.2453L8.0498 10.2828L9.16639 11.9618Z" fill="#CC6228" stroke="#CC6228" stroke-width="0.0416635" stroke-linecap="round" stroke-linejoin="round"/>
<path d="M13.4077 10.2453L13.6119 11.9618L14.7326 10.2828L13.4077 10.2453Z" fill="#CC6228" stroke="#CC6228" stroke-width="0.0416635" stroke-linecap="round" stroke-linejoin="round"/>
<path d="M14.4119 8.35376L12.0371 8.46209L12.2579 9.68283L12.6079 8.94538L13.4537 9.33285L14.4119 8.35376Z" fill="#CC6228" stroke="#CC6228" stroke-width="0.0416635" stroke-linecap="round" stroke-linejoin="round"/>
<path d="M9.33303 9.33285L10.1746 8.94538L10.5246 9.68283L10.7454 8.46209L8.37061 8.35376L9.33303 9.33285Z" fill="#CC6228" stroke="#CC6228" stroke-width="0.0416635" stroke-linecap="round" stroke-linejoin="round"/>
<path d="M8.37061 8.35376L9.36636 10.2994L9.33303 9.33285L8.37061 8.35376Z" fill="#E27525" stroke="#E27525" stroke-width="0.0416635" stroke-linecap="round" stroke-linejoin="round"/>
<path d="M13.4535 9.33285L13.416 10.2994L14.4118 8.35376L13.4535 9.33285Z" fill="#E27525" stroke="#E27525" stroke-width="0.0416635" stroke-linecap="round" stroke-linejoin="round"/>
<path d="M10.7452 8.4621L10.5244 9.68284L10.8036 11.1244L10.8661 9.22454L10.7452 8.4621Z" fill="#E27525" stroke="#E27525" stroke-width="0.0416635" stroke-linecap="round" stroke-linejoin="round"/>
<path d="M12.0371 8.4621L11.9204 9.22037L11.9787 11.1244L12.2579 9.68284L12.0371 8.4621Z" fill="#E27525" stroke="#E27525" stroke-width="0.0416635" stroke-linecap="round" stroke-linejoin="round"/>
<path d="M12.2577 9.68283L11.9785 11.1244L12.1785 11.266L13.4159 10.2994L13.4534 9.33286L12.2577 9.68283Z" fill="#F5841F" stroke="#F5841F" stroke-width="0.0416635" stroke-linecap="round" stroke-linejoin="round"/>
<path d="M9.33301 9.33286L9.36634 10.2994L10.6037 11.266L10.8037 11.1244L10.5246 9.68283L9.33301 9.33286Z" fill="#F5841F" stroke="#F5841F" stroke-width="0.0416635" stroke-linecap="round" stroke-linejoin="round"/>
<path d="M12.2829 12.5951L12.2954 12.1993L12.1871 12.1076H10.5956L10.4914 12.1993L10.4997 12.5951L9.1665 11.9618L9.63314 12.3451L10.5789 12.9992H12.1996L13.1495 12.3451L13.612 11.9618L12.2829 12.5951Z" fill="#C0AC9D" stroke="#C0AC9D" stroke-width="0.0416635" stroke-linecap="round" stroke-linejoin="round"/>
<path d="M12.1786 11.266L11.9786 11.1244H10.8037L10.6037 11.266L10.4912 12.1993L10.5954 12.1076H12.1869L12.2952 12.1993L12.1786 11.266Z" fill="#161616" stroke="#161616" stroke-width="0.0416635" stroke-linecap="round" stroke-linejoin="round"/>
<path d="M16.4284 6.32892L16.7825 4.60405L16.2492 3L12.1787 6.02061L13.7453 7.34551L15.9576 7.99129L16.4451 7.4205L16.2326 7.26635L16.57 6.95804L16.3117 6.75805L16.6492 6.49974L16.4284 6.32892Z" fill="#763E1A" stroke="#763E1A" stroke-width="0.0416635" stroke-linecap="round" stroke-linejoin="round"/>
<path d="M6 4.60405L6.35831 6.32892L6.12916 6.49974L6.4708 6.75805L6.21248 6.95804L6.54996 7.26635L6.33747 7.4205L6.82494 7.99129L9.03727 7.34551L10.6038 6.02061L6.53329 3L6 4.60405Z" fill="#763E1A" stroke="#763E1A" stroke-width="0.0416635" stroke-linecap="round" stroke-linejoin="round"/>
<path d="M15.9575 7.9913L13.7452 7.34552L14.4118 8.35378L13.416 10.2995L14.7326 10.2828H16.6991L15.9575 7.9913Z" fill="#F5841F" stroke="#F5841F" stroke-width="0.0416635" stroke-linecap="round" stroke-linejoin="round"/>
<path d="M9.03718 7.34552L6.82485 7.9913L6.0874 10.2828H8.04975L9.36632 10.2995L8.37056 8.35378L9.03718 7.34552Z" fill="#F5841F" stroke="#F5841F" stroke-width="0.0416635" stroke-linecap="round" stroke-linejoin="round"/>
<path d="M12.0372 8.46209L12.1789 6.0206L12.8205 4.28323H9.9624L10.604 6.0206L10.7457 8.46209L10.7998 9.2287L10.804 11.1244H11.9789L11.9831 9.2287L12.0372 8.46209Z" fill="#F5841F" stroke="#F5841F" stroke-width="0.0416635" stroke-linecap="round" stroke-linejoin="round"/>
</svg>
