<svg width="73" height="16" viewBox="0 0 73 16" fill="none" xmlns="http://www.w3.org/2000/svg">
<rect x="0.5" y="0.5" width="22" height="15" rx="2" fill="#1F72CD" stroke="#D9D9D9"/>
<path fill-rule="evenodd" clip-rule="evenodd" d="M4.1443 5.62039L2 10.576H4.56703L4.88527 9.78589H5.61269L5.93093 10.576H8.75651V9.97297L9.00828 10.576H10.4699L10.7217 9.96023V10.576H16.5981L17.3127 9.80641L17.9817 10.576L21 10.5824L18.8489 8.11204L21 5.62039H18.0285L17.333 6.37578L16.685 5.62039H10.2922L9.74322 6.89948L9.18139 5.62039H6.61972V6.20293L6.33475 5.62039H4.1443ZM12.9196 6.3241H16.2941L17.3262 7.48839L18.3916 6.3241H19.4237L17.8555 8.11135L19.4237 9.878H18.3448L17.3127 8.70018L16.2419 9.878H12.9196V6.3241ZM13.7529 7.70951V7.06037V7.05975H15.8585L16.7773 8.0979L15.8178 9.14172H13.7529V8.43304H15.5939V7.70951H13.7529ZM4.64098 6.3241H5.89227L7.31459 9.68454V6.3241H8.68533L9.7839 8.73352L10.7964 6.3241H12.1603V9.88009H11.3304L11.3236 7.09364L10.1137 9.88009H9.3713L8.15461 7.09364V9.88009H6.44733L6.12366 9.08288H4.37499L4.05199 9.87939H3.13725L4.64098 6.3241ZM4.67359 8.34592L5.2497 6.92576L5.82515 8.34592H4.67359Z" fill="white"/>
<rect x="25.5" y="0.5" width="22" height="15" rx="2" fill="white" stroke="#D9D9D9"/>
<path fill-rule="evenodd" clip-rule="evenodd" d="M32.0252 10.8388H30.6318L29.587 6.79491C29.5374 6.60889 29.4321 6.44443 29.2772 6.36693C28.8906 6.17214 28.4647 6.01713 28 5.93894V5.78325H30.2446C30.5544 5.78325 30.7867 6.01713 30.8254 6.28874L31.3676 9.20575L32.7602 5.78325H34.1149L32.0252 10.8388ZM34.8893 10.8388H33.5734L34.657 5.78325H35.9729L34.8893 10.8388ZM37.6754 7.1838C37.7141 6.91151 37.9464 6.75582 38.2175 6.75582C38.6434 6.71673 39.1074 6.79491 39.4947 6.98902L39.727 5.90053C39.3398 5.74484 38.9138 5.66666 38.5273 5.66666C37.2501 5.66666 36.3207 6.36693 36.3207 7.33882C36.3207 8.07818 36.979 8.46639 37.4437 8.70027C37.9464 8.93347 38.14 9.08916 38.1013 9.32236C38.1013 9.67216 37.7141 9.82785 37.3275 9.82785C36.8629 9.82785 36.3982 9.71125 35.9729 9.51646L35.7406 10.6056C36.2052 10.7997 36.708 10.8779 37.1726 10.8779C38.6047 10.9163 39.4947 10.2167 39.4947 9.16667C39.4947 7.84431 37.6754 7.7668 37.6754 7.1838ZM44.1 10.8388L43.0552 5.78325H41.9329C41.7005 5.78325 41.4682 5.93894 41.3907 6.17214L39.4559 10.8388H40.8106L41.081 10.1001H42.7454L42.9003 10.8388H44.1ZM42.1265 7.14471L42.513 9.05007H41.4294L42.1265 7.14471Z" fill="#172B85"/>
<rect x="50.5" y="0.5" width="22" height="15" rx="2" fill="white" stroke="#D9D9D9"/>
<path fill-rule="evenodd" clip-rule="evenodd" d="M61.7144 11.6974C60.8368 12.4337 59.6984 12.8782 58.4545 12.8782C55.6788 12.8782 53.4287 10.6652 53.4287 7.93533C53.4287 5.20546 55.6788 2.99246 58.4545 2.99246C59.6984 2.99246 60.8368 3.43695 61.7144 4.17326C62.592 3.43696 63.7304 2.99248 64.9744 2.99248C67.75 2.99248 70.0001 5.20547 70.0001 7.93534C70.0001 10.6652 67.75 12.8782 64.9744 12.8782C63.7304 12.8782 62.592 12.4337 61.7144 11.6974Z" fill="#ED0006"/>
<path fill-rule="evenodd" clip-rule="evenodd" d="M61.7144 11.6974C62.795 10.7908 63.4802 9.44176 63.4802 7.93533C63.4802 6.42889 62.795 5.07985 61.7144 4.17324C62.592 3.43695 63.7303 2.99246 64.9743 2.99246C67.7499 2.99246 70 5.20546 70 7.93533C70 10.6652 67.7499 12.8782 64.9743 12.8782C63.7303 12.8782 62.592 12.4337 61.7144 11.6974Z" fill="#F9A000"/>
<path fill-rule="evenodd" clip-rule="evenodd" d="M61.7145 11.6974C62.7951 10.7908 63.4803 9.44179 63.4803 7.93537C63.4803 6.42895 62.7951 5.07992 61.7145 4.17331C60.6339 5.07992 59.9487 6.42895 59.9487 7.93537C59.9487 9.44179 60.6339 10.7908 61.7145 11.6974Z" fill="#FF5E00"/>
</svg>
